<svg xmlns="http://www.w3.org/2000/svg" width="317" height="317" display="block" preserveAspectRatio="xMidYMid" style="margin:auto;background:0 0" viewBox="0 0 100 100"><rect width="6" height="8" x="47" y="27" fill="#00a8a9" rx="3" ry="4"><animate attributeName="opacity" begin="-1.1927710843373494s" dur="1.2048192771084336s" keyTimes="0;1" repeatCount="indefinite" values="1;0"/></rect><rect width="6" height="8" x="47" y="27" fill="#00a8a9" rx="3" ry="4" transform="rotate(3.6 50 50)"><animate attributeName="opacity" begin="-1.180722891566265s" dur="1.2048192771084336s" keyTimes="0;1" repeatCount="indefinite" values="1;0"/></rect><rect width="6" height="8" x="47" y="27" fill="#00a8a9" rx="3" ry="4" transform="rotate(7.2 50 50)"><animate attributeName="opacity" begin="-1.1686746987951808s" dur="1.2048192771084336s" keyTimes="0;1" repeatCount="indefinite" values="1;0"/></rect><rect width="6" height="8" x="47" y="27" fill="#00a8a9" rx="3" ry="4" transform="rotate(10.8 50 50)"><animate attributeName="opacity" begin="-1.1566265060240963s" dur="1.2048192771084336s" keyTimes="0;1" repeatCount="indefinite" values="1;0"/></rect><rect width="6" height="8" x="47" y="27" fill="#00a8a9" rx="3" ry="4" transform="rotate(14.4 50 50)"><animate attributeName="opacity" begin="-1.144578313253012s" dur="1.2048192771084336s" keyTimes="0;1" repeatCount="indefinite" values="1;0"/></rect><rect width="6" height="8" x="47" y="27" fill="#00a8a9" rx="3" ry="4" transform="rotate(18 50 50)"><animate attributeName="opacity" begin="-1.1325301204819278s" dur="1.2048192771084336s" keyTimes="0;1" repeatCount="indefinite" values="1;0"/></rect><rect width="6" height="8" x="47" y="27" fill="#00a8a9" rx="3" ry="4" transform="rotate(21.6 50 50)"><animate attributeName="opacity" begin="-1.1204819277108433s" dur="1.2048192771084336s" keyTimes="0;1" repeatCount="indefinite" values="1;0"/></rect><rect width="6" height="8" x="47" y="27" fill="#00a8a9" rx="3" ry="4" transform="rotate(25.2 50 50)"><animate attributeName="opacity" begin="-1.108433734939759s" dur="1.2048192771084336s" keyTimes="0;1" repeatCount="indefinite" values="1;0"/></rect><rect width="6" height="8" x="47" y="27" fill="#00a8a9" rx="3" ry="4" transform="rotate(28.8 50 50)"><animate attributeName="opacity" begin="-1.0963855421686748s" dur="1.2048192771084336s" keyTimes="0;1" repeatCount="indefinite" values="1;0"/></rect><rect width="6" height="8" x="47" y="27" fill="#00a8a9" rx="3" ry="4" transform="rotate(32.4 50 50)"><animate attributeName="opacity" begin="-1.0843373493975903s" dur="1.2048192771084336s" keyTimes="0;1" repeatCount="indefinite" values="1;0"/></rect><rect width="6" height="8" x="47" y="27" fill="#00a8a9" rx="3" ry="4" transform="rotate(36 50 50)"><animate attributeName="opacity" begin="-1.072289156626506s" dur="1.2048192771084336s" keyTimes="0;1" repeatCount="indefinite" values="1;0"/></rect><rect width="6" height="8" x="47" y="27" fill="#00a8a9" rx="3" ry="4" transform="rotate(39.6 50 50)"><animate attributeName="opacity" begin="-1.0602409638554218s" dur="1.2048192771084336s" keyTimes="0;1" repeatCount="indefinite" values="1;0"/></rect><rect width="6" height="8" x="47" y="27" fill="#00a8a9" rx="3" ry="4" transform="rotate(43.2 50 50)"><animate attributeName="opacity" begin="-1.0481927710843373s" dur="1.2048192771084336s" keyTimes="0;1" repeatCount="indefinite" values="1;0"/></rect><rect width="6" height="8" x="47" y="27" fill="#00a8a9" rx="3" ry="4" transform="rotate(46.8 50 50)"><animate attributeName="opacity" begin="-1.036144578313253s" dur="1.2048192771084336s" keyTimes="0;1" repeatCount="indefinite" values="1;0"/></rect><rect width="6" height="8" x="47" y="27" fill="#00a8a9" rx="3" ry="4" transform="rotate(50.4 50 50)"><animate attributeName="opacity" begin="-1.0240963855421688s" dur="1.2048192771084336s" keyTimes="0;1" repeatCount="indefinite" values="1;0"/></rect><rect width="6" height="8" x="47" y="27" fill="#00a8a9" rx="3" ry="4" transform="rotate(54 50 50)"><animate attributeName="opacity" begin="-1.0120481927710843s" dur="1.2048192771084336s" keyTimes="0;1" repeatCount="indefinite" values="1;0"/></rect><rect width="6" height="8" x="47" y="27" fill="#00a8a9" rx="3" ry="4" transform="rotate(57.6 50 50)"><animate attributeName="opacity" begin="-1s" dur="1.2048192771084336s" keyTimes="0;1" repeatCount="indefinite" values="1;0"/></rect><rect width="6" height="8" x="47" y="27" fill="#00a8a9" rx="3" ry="4" transform="rotate(61.2 50 50)"><animate attributeName="opacity" begin="-0.9879518072289156s" dur="1.2048192771084336s" keyTimes="0;1" repeatCount="indefinite" values="1;0"/></rect><rect width="6" height="8" x="47" y="27" fill="#00a8a9" rx="3" ry="4" transform="rotate(64.8 50 50)"><animate attributeName="opacity" begin="-0.9759036144578314s" dur="1.2048192771084336s" keyTimes="0;1" repeatCount="indefinite" values="1;0"/></rect><rect width="6" height="8" x="47" y="27" fill="#00a8a9" rx="3" ry="4" transform="rotate(68.4 50 50)"><animate attributeName="opacity" begin="-0.963855421686747s" dur="1.2048192771084336s" keyTimes="0;1" repeatCount="indefinite" values="1;0"/></rect><rect width="6" height="8" x="47" y="27" fill="#00a8a9" rx="3" ry="4" transform="rotate(72 50 50)"><animate attributeName="opacity" begin="-0.9518072289156626s" dur="1.2048192771084336s" keyTimes="0;1" repeatCount="indefinite" values="1;0"/></rect><rect width="6" height="8" x="47" y="27" fill="#00a8a9" rx="3" ry="4" transform="rotate(75.6 50 50)"><animate attributeName="opacity" begin="-0.9397590361445783s" dur="1.2048192771084336s" keyTimes="0;1" repeatCount="indefinite" values="1;0"/></rect><rect width="6" height="8" x="47" y="27" fill="#00a8a9" rx="3" ry="4" transform="rotate(79.2 50 50)"><animate attributeName="opacity" begin="-0.927710843373494s" dur="1.2048192771084336s" keyTimes="0;1" repeatCount="indefinite" values="1;0"/></rect><rect width="6" height="8" x="47" y="27" fill="#00a8a9" rx="3" ry="4" transform="rotate(82.8 50 50)"><animate attributeName="opacity" begin="-0.9156626506024096s" dur="1.2048192771084336s" keyTimes="0;1" repeatCount="indefinite" values="1;0"/></rect><rect width="6" height="8" x="47" y="27" fill="#00a8a9" rx="3" ry="4" transform="rotate(86.4 50 50)"><animate attributeName="opacity" begin="-0.9036144578313253s" dur="1.2048192771084336s" keyTimes="0;1" repeatCount="indefinite" values="1;0"/></rect><rect width="6" height="8" x="47" y="27" fill="#00a8a9" rx="3" ry="4" transform="rotate(90 50 50)"><animate attributeName="opacity" begin="-0.891566265060241s" dur="1.2048192771084336s" keyTimes="0;1" repeatCount="indefinite" values="1;0"/></rect><rect width="6" height="8" x="47" y="27" fill="#00a8a9" rx="3" ry="4" transform="rotate(93.6 50 50)"><animate attributeName="opacity" begin="-0.8795180722891566s" dur="1.2048192771084336s" keyTimes="0;1" repeatCount="indefinite" values="1;0"/></rect><rect width="6" height="8" x="47" y="27" fill="#00a8a9" rx="3" ry="4" transform="rotate(97.2 50 50)"><animate attributeName="opacity" begin="-0.8674698795180723s" dur="1.2048192771084336s" keyTimes="0;1" repeatCount="indefinite" values="1;0"/></rect><rect width="6" height="8" x="47" y="27" fill="#00a8a9" rx="3" ry="4" transform="rotate(100.8 50 50)"><animate attributeName="opacity" begin="-0.8554216867469879s" dur="1.2048192771084336s" keyTimes="0;1" repeatCount="indefinite" values="1;0"/></rect><rect width="6" height="8" x="47" y="27" fill="#00a8a9" rx="3" ry="4" transform="rotate(104.4 50 50)"><animate attributeName="opacity" begin="-0.8433734939759037s" dur="1.2048192771084336s" keyTimes="0;1" repeatCount="indefinite" values="1;0"/></rect><rect width="6" height="8" x="47" y="27" fill="#00a8a9" rx="3" ry="4" transform="rotate(108 50 50)"><animate attributeName="opacity" begin="-0.8313253012048193s" dur="1.2048192771084336s" keyTimes="0;1" repeatCount="indefinite" values="1;0"/></rect><rect width="6" height="8" x="47" y="27" fill="#00a8a9" rx="3" ry="4" transform="rotate(111.6 50 50)"><animate attributeName="opacity" begin="-0.8192771084337349s" dur="1.2048192771084336s" keyTimes="0;1" repeatCount="indefinite" values="1;0"/></rect><rect width="6" height="8" x="47" y="27" fill="#00a8a9" rx="3" ry="4" transform="rotate(115.2 50 50)"><animate attributeName="opacity" begin="-0.8072289156626506s" dur="1.2048192771084336s" keyTimes="0;1" repeatCount="indefinite" values="1;0"/></rect><rect width="6" height="8" x="47" y="27" fill="#00a8a9" rx="3" ry="4" transform="rotate(118.8 50 50)"><animate attributeName="opacity" begin="-0.7951807228915663s" dur="1.2048192771084336s" keyTimes="0;1" repeatCount="indefinite" values="1;0"/></rect><rect width="6" height="8" x="47" y="27" fill="#00a8a9" rx="3" ry="4" transform="rotate(122.4 50 50)"><animate attributeName="opacity" begin="-0.7831325301204819s" dur="1.2048192771084336s" keyTimes="0;1" repeatCount="indefinite" values="1;0"/></rect><rect width="6" height="8" x="47" y="27" fill="#00a8a9" rx="3" ry="4" transform="rotate(126 50 50)"><animate attributeName="opacity" begin="-0.7710843373493976s" dur="1.2048192771084336s" keyTimes="0;1" repeatCount="indefinite" values="1;0"/></rect><rect width="6" height="8" x="47" y="27" fill="#00a8a9" rx="3" ry="4" transform="rotate(129.6 50 50)"><animate attributeName="opacity" begin="-0.7590361445783133s" dur="1.2048192771084336s" keyTimes="0;1" repeatCount="indefinite" values="1;0"/></rect><rect width="6" height="8" x="47" y="27" fill="#00a8a9" rx="3" ry="4" transform="rotate(133.2 50 50)"><animate attributeName="opacity" begin="-0.7469879518072289s" dur="1.2048192771084336s" keyTimes="0;1" repeatCount="indefinite" values="1;0"/></rect><rect width="6" height="8" x="47" y="27" fill="#00a8a9" rx="3" ry="4" transform="rotate(136.8 50 50)"><animate attributeName="opacity" begin="-0.7349397590361446s" dur="1.2048192771084336s" keyTimes="0;1" repeatCount="indefinite" values="1;0"/></rect><rect width="6" height="8" x="47" y="27" fill="#00a8a9" rx="3" ry="4" transform="rotate(140.4 50 50)"><animate attributeName="opacity" begin="-0.7228915662650602s" dur="1.2048192771084336s" keyTimes="0;1" repeatCount="indefinite" values="1;0"/></rect><rect width="6" height="8" x="47" y="27" fill="#00a8a9" rx="3" ry="4" transform="rotate(144 50 50)"><animate attributeName="opacity" begin="-0.7108433734939759s" dur="1.2048192771084336s" keyTimes="0;1" repeatCount="indefinite" values="1;0"/></rect><rect width="6" height="8" x="47" y="27" fill="#00a8a9" rx="3" ry="4" transform="rotate(147.6 50 50)"><animate attributeName="opacity" begin="-0.6987951807228916s" dur="1.2048192771084336s" keyTimes="0;1" repeatCount="indefinite" values="1;0"/></rect><rect width="6" height="8" x="47" y="27" fill="#00a8a9" rx="3" ry="4" transform="rotate(151.2 50 50)"><animate attributeName="opacity" begin="-0.6867469879518072s" dur="1.2048192771084336s" keyTimes="0;1" repeatCount="indefinite" values="1;0"/></rect><rect width="6" height="8" x="47" y="27" fill="#00a8a9" rx="3" ry="4" transform="rotate(154.8 50 50)"><animate attributeName="opacity" begin="-0.6746987951807228s" dur="1.2048192771084336s" keyTimes="0;1" repeatCount="indefinite" values="1;0"/></rect><rect width="6" height="8" x="47" y="27" fill="#00a8a9" rx="3" ry="4" transform="rotate(158.4 50 50)"><animate attributeName="opacity" begin="-0.6626506024096386s" dur="1.2048192771084336s" keyTimes="0;1" repeatCount="indefinite" values="1;0"/></rect><rect width="6" height="8" x="47" y="27" fill="#00a8a9" rx="3" ry="4" transform="rotate(162 50 50)"><animate attributeName="opacity" begin="-0.6506024096385542s" dur="1.2048192771084336s" keyTimes="0;1" repeatCount="indefinite" values="1;0"/></rect><rect width="6" height="8" x="47" y="27" fill="#00a8a9" rx="3" ry="4" transform="rotate(165.6 50 50)"><animate attributeName="opacity" begin="-0.6385542168674698s" dur="1.2048192771084336s" keyTimes="0;1" repeatCount="indefinite" values="1;0"/></rect><rect width="6" height="8" x="47" y="27" fill="#00a8a9" rx="3" ry="4" transform="rotate(169.2 50 50)"><animate attributeName="opacity" begin="-0.6265060240963856s" dur="1.2048192771084336s" keyTimes="0;1" repeatCount="indefinite" values="1;0"/></rect><rect width="6" height="8" x="47" y="27" fill="#00a8a9" rx="3" ry="4" transform="rotate(172.8 50 50)"><animate attributeName="opacity" begin="-0.6144578313253012s" dur="1.2048192771084336s" keyTimes="0;1" repeatCount="indefinite" values="1;0"/></rect><rect width="6" height="8" x="47" y="27" fill="#00a8a9" rx="3" ry="4" transform="rotate(176.4 50 50)"><animate attributeName="opacity" begin="-0.6024096385542169s" dur="1.2048192771084336s" keyTimes="0;1" repeatCount="indefinite" values="1;0"/></rect><rect width="6" height="8" x="47" y="27" fill="#00a8a9" rx="3" ry="4" transform="rotate(180 50 50)"><animate attributeName="opacity" begin="-0.5903614457831325s" dur="1.2048192771084336s" keyTimes="0;1" repeatCount="indefinite" values="1;0"/></rect><rect width="6" height="8" x="47" y="27" fill="#00a8a9" rx="3" ry="4" transform="rotate(183.6 50 50)"><animate attributeName="opacity" begin="-0.5783132530120482s" dur="1.2048192771084336s" keyTimes="0;1" repeatCount="indefinite" values="1;0"/></rect><rect width="6" height="8" x="47" y="27" fill="#00a8a9" rx="3" ry="4" transform="rotate(187.2 50 50)"><animate attributeName="opacity" begin="-0.5662650602409639s" dur="1.2048192771084336s" keyTimes="0;1" repeatCount="indefinite" values="1;0"/></rect><rect width="6" height="8" x="47" y="27" fill="#00a8a9" rx="3" ry="4" transform="rotate(190.8 50 50)"><animate attributeName="opacity" begin="-0.5542168674698795s" dur="1.2048192771084336s" keyTimes="0;1" repeatCount="indefinite" values="1;0"/></rect><rect width="6" height="8" x="47" y="27" fill="#00a8a9" rx="3" ry="4" transform="rotate(194.4 50 50)"><animate attributeName="opacity" begin="-0.5421686746987951s" dur="1.2048192771084336s" keyTimes="0;1" repeatCount="indefinite" values="1;0"/></rect><rect width="6" height="8" x="47" y="27" fill="#00a8a9" rx="3" ry="4" transform="rotate(198 50 50)"><animate attributeName="opacity" begin="-0.5301204819277109s" dur="1.2048192771084336s" keyTimes="0;1" repeatCount="indefinite" values="1;0"/></rect><rect width="6" height="8" x="47" y="27" fill="#00a8a9" rx="3" ry="4" transform="rotate(201.6 50 50)"><animate attributeName="opacity" begin="-0.5180722891566265s" dur="1.2048192771084336s" keyTimes="0;1" repeatCount="indefinite" values="1;0"/></rect><rect width="6" height="8" x="47" y="27" fill="#00a8a9" rx="3" ry="4" transform="rotate(205.2 50 50)"><animate attributeName="opacity" begin="-0.5060240963855421s" dur="1.2048192771084336s" keyTimes="0;1" repeatCount="indefinite" values="1;0"/></rect><rect width="6" height="8" x="47" y="27" fill="#00a8a9" rx="3" ry="4" transform="rotate(208.8 50 50)"><animate attributeName="opacity" begin="-0.4939759036144578s" dur="1.2048192771084336s" keyTimes="0;1" repeatCount="indefinite" values="1;0"/></rect><rect width="6" height="8" x="47" y="27" fill="#00a8a9" rx="3" ry="4" transform="rotate(212.4 50 50)"><animate attributeName="opacity" begin="-0.4819277108433735s" dur="1.2048192771084336s" keyTimes="0;1" repeatCount="indefinite" values="1;0"/></rect><rect width="6" height="8" x="47" y="27" fill="#00a8a9" rx="3" ry="4" transform="rotate(216 50 50)"><animate attributeName="opacity" begin="-0.46987951807228917s" dur="1.2048192771084336s" keyTimes="0;1" repeatCount="indefinite" values="1;0"/></rect><rect width="6" height="8" x="47" y="27" fill="#00a8a9" rx="3" ry="4" transform="rotate(219.6 50 50)"><animate attributeName="opacity" begin="-0.4578313253012048s" dur="1.2048192771084336s" keyTimes="0;1" repeatCount="indefinite" values="1;0"/></rect><rect width="6" height="8" x="47" y="27" fill="#00a8a9" rx="3" ry="4" transform="rotate(223.2 50 50)"><animate attributeName="opacity" begin="-0.4457831325301205s" dur="1.2048192771084336s" keyTimes="0;1" repeatCount="indefinite" values="1;0"/></rect><rect width="6" height="8" x="47" y="27" fill="#00a8a9" rx="3" ry="4" transform="rotate(226.8 50 50)"><animate attributeName="opacity" begin="-0.43373493975903615s" dur="1.2048192771084336s" keyTimes="0;1" repeatCount="indefinite" values="1;0"/></rect><rect width="6" height="8" x="47" y="27" fill="#00a8a9" rx="3" ry="4" transform="rotate(230.4 50 50)"><animate attributeName="opacity" begin="-0.42168674698795183s" dur="1.2048192771084336s" keyTimes="0;1" repeatCount="indefinite" values="1;0"/></rect><rect width="6" height="8" x="47" y="27" fill="#00a8a9" rx="3" ry="4" transform="rotate(234 50 50)"><animate attributeName="opacity" begin="-0.40963855421686746s" dur="1.2048192771084336s" keyTimes="0;1" repeatCount="indefinite" values="1;0"/></rect><rect width="6" height="8" x="47" y="27" fill="#00a8a9" rx="3" ry="4" transform="rotate(237.6 50 50)"><animate attributeName="opacity" begin="-0.39759036144578314s" dur="1.2048192771084336s" keyTimes="0;1" repeatCount="indefinite" values="1;0"/></rect><rect width="6" height="8" x="47" y="27" fill="#00a8a9" rx="3" ry="4" transform="rotate(241.2 50 50)"><animate attributeName="opacity" begin="-0.3855421686746988s" dur="1.2048192771084336s" keyTimes="0;1" repeatCount="indefinite" values="1;0"/></rect><rect width="6" height="8" x="47" y="27" fill="#00a8a9" rx="3" ry="4" transform="rotate(244.8 50 50)"><animate attributeName="opacity" begin="-0.37349397590361444s" dur="1.2048192771084336s" keyTimes="0;1" repeatCount="indefinite" values="1;0"/></rect><rect width="6" height="8" x="47" y="27" fill="#00a8a9" rx="3" ry="4" transform="rotate(248.4 50 50)"><animate attributeName="opacity" begin="-0.3614457831325301s" dur="1.2048192771084336s" keyTimes="0;1" repeatCount="indefinite" values="1;0"/></rect><rect width="6" height="8" x="47" y="27" fill="#00a8a9" rx="3" ry="4" transform="rotate(252 50 50)"><animate attributeName="opacity" begin="-0.3493975903614458s" dur="1.2048192771084336s" keyTimes="0;1" repeatCount="indefinite" values="1;0"/></rect><rect width="6" height="8" x="47" y="27" fill="#00a8a9" rx="3" ry="4" transform="rotate(255.6 50 50)"><animate attributeName="opacity" begin="-0.3373493975903614s" dur="1.2048192771084336s" keyTimes="0;1" repeatCount="indefinite" values="1;0"/></rect><rect width="6" height="8" x="47" y="27" fill="#00a8a9" rx="3" ry="4" transform="rotate(259.2 50 50)"><animate attributeName="opacity" begin="-0.3253012048192771s" dur="1.2048192771084336s" keyTimes="0;1" repeatCount="indefinite" values="1;0"/></rect><rect width="6" height="8" x="47" y="27" fill="#00a8a9" rx="3" ry="4" transform="rotate(262.8 50 50)"><animate attributeName="opacity" begin="-0.3132530120481928s" dur="1.2048192771084336s" keyTimes="0;1" repeatCount="indefinite" values="1;0"/></rect><rect width="6" height="8" x="47" y="27" fill="#00a8a9" rx="3" ry="4" transform="rotate(266.4 50 50)"><animate attributeName="opacity" begin="-0.30120481927710846s" dur="1.2048192771084336s" keyTimes="0;1" repeatCount="indefinite" values="1;0"/></rect><rect width="6" height="8" x="47" y="27" fill="#00a8a9" rx="3" ry="4" transform="rotate(270 50 50)"><animate attributeName="opacity" begin="-0.2891566265060241s" dur="1.2048192771084336s" keyTimes="0;1" repeatCount="indefinite" values="1;0"/></rect><rect width="6" height="8" x="47" y="27" fill="#00a8a9" rx="3" ry="4" transform="rotate(273.6 50 50)"><animate attributeName="opacity" begin="-0.27710843373493976s" dur="1.2048192771084336s" keyTimes="0;1" repeatCount="indefinite" values="1;0"/></rect><rect width="6" height="8" x="47" y="27" fill="#00a8a9" rx="3" ry="4" transform="rotate(277.2 50 50)"><animate attributeName="opacity" begin="-0.26506024096385544s" dur="1.2048192771084336s" keyTimes="0;1" repeatCount="indefinite" values="1;0"/></rect><rect width="6" height="8" x="47" y="27" fill="#00a8a9" rx="3" ry="4" transform="rotate(280.8 50 50)"><animate attributeName="opacity" begin="-0.25301204819277107s" dur="1.2048192771084336s" keyTimes="0;1" repeatCount="indefinite" values="1;0"/></rect><rect width="6" height="8" x="47" y="27" fill="#00a8a9" rx="3" ry="4" transform="rotate(284.4 50 50)"><animate attributeName="opacity" begin="-0.24096385542168675s" dur="1.2048192771084336s" keyTimes="0;1" repeatCount="indefinite" values="1;0"/></rect><rect width="6" height="8" x="47" y="27" fill="#00a8a9" rx="3" ry="4" transform="rotate(288 50 50)"><animate attributeName="opacity" begin="-0.2289156626506024s" dur="1.2048192771084336s" keyTimes="0;1" repeatCount="indefinite" values="1;0"/></rect><rect width="6" height="8" x="47" y="27" fill="#00a8a9" rx="3" ry="4" transform="rotate(291.6 50 50)"><animate attributeName="opacity" begin="-0.21686746987951808s" dur="1.2048192771084336s" keyTimes="0;1" repeatCount="indefinite" values="1;0"/></rect><rect width="6" height="8" x="47" y="27" fill="#00a8a9" rx="3" ry="4" transform="rotate(295.2 50 50)"><animate attributeName="opacity" begin="-0.20481927710843373s" dur="1.2048192771084336s" keyTimes="0;1" repeatCount="indefinite" values="1;0"/></rect><rect width="6" height="8" x="47" y="27" fill="#00a8a9" rx="3" ry="4" transform="rotate(298.8 50 50)"><animate attributeName="opacity" begin="-0.1927710843373494s" dur="1.2048192771084336s" keyTimes="0;1" repeatCount="indefinite" values="1;0"/></rect><rect width="6" height="8" x="47" y="27" fill="#00a8a9" rx="3" ry="4" transform="rotate(302.4 50 50)"><animate attributeName="opacity" begin="-0.18072289156626506s" dur="1.2048192771084336s" keyTimes="0;1" repeatCount="indefinite" values="1;0"/></rect><rect width="6" height="8" x="47" y="27" fill="#00a8a9" rx="3" ry="4" transform="rotate(306 50 50)"><animate attributeName="opacity" begin="-0.1686746987951807s" dur="1.2048192771084336s" keyTimes="0;1" repeatCount="indefinite" values="1;0"/></rect><rect width="6" height="8" x="47" y="27" fill="#00a8a9" rx="3" ry="4" transform="rotate(309.6 50 50)"><animate attributeName="opacity" begin="-0.1566265060240964s" dur="1.2048192771084336s" keyTimes="0;1" repeatCount="indefinite" values="1;0"/></rect><rect width="6" height="8" x="47" y="27" fill="#00a8a9" rx="3" ry="4" transform="rotate(313.2 50 50)"><animate attributeName="opacity" begin="-0.14457831325301204s" dur="1.2048192771084336s" keyTimes="0;1" repeatCount="indefinite" values="1;0"/></rect><rect width="6" height="8" x="47" y="27" fill="#00a8a9" rx="3" ry="4" transform="rotate(316.8 50 50)"><animate attributeName="opacity" begin="-0.13253012048192772s" dur="1.2048192771084336s" keyTimes="0;1" repeatCount="indefinite" values="1;0"/></rect><rect width="6" height="8" x="47" y="27" fill="#00a8a9" rx="3" ry="4" transform="rotate(320.4 50 50)"><animate attributeName="opacity" begin="-0.12048192771084337s" dur="1.2048192771084336s" keyTimes="0;1" repeatCount="indefinite" values="1;0"/></rect><rect width="6" height="8" x="47" y="27" fill="#00a8a9" rx="3" ry="4" transform="rotate(324 50 50)"><animate attributeName="opacity" begin="-0.10843373493975904s" dur="1.2048192771084336s" keyTimes="0;1" repeatCount="indefinite" values="1;0"/></rect><rect width="6" height="8" x="47" y="27" fill="#00a8a9" rx="3" ry="4" transform="rotate(327.6 50 50)"><animate attributeName="opacity" begin="-0.0963855421686747s" dur="1.2048192771084336s" keyTimes="0;1" repeatCount="indefinite" values="1;0"/></rect><rect width="6" height="8" x="47" y="27" fill="#00a8a9" rx="3" ry="4" transform="rotate(331.2 50 50)"><animate attributeName="opacity" begin="-0.08433734939759036s" dur="1.2048192771084336s" keyTimes="0;1" repeatCount="indefinite" values="1;0"/></rect><rect width="6" height="8" x="47" y="27" fill="#00a8a9" rx="3" ry="4" transform="rotate(334.8 50 50)"><animate attributeName="opacity" begin="-0.07228915662650602s" dur="1.2048192771084336s" keyTimes="0;1" repeatCount="indefinite" values="1;0"/></rect><rect width="6" height="8" x="47" y="27" fill="#00a8a9" rx="3" ry="4" transform="rotate(338.4 50 50)"><animate attributeName="opacity" begin="-0.060240963855421686s" dur="1.2048192771084336s" keyTimes="0;1" repeatCount="indefinite" values="1;0"/></rect><rect width="6" height="8" x="47" y="27" fill="#00a8a9" rx="3" ry="4" transform="rotate(342 50 50)"><animate attributeName="opacity" begin="-0.04819277108433735s" dur="1.2048192771084336s" keyTimes="0;1" repeatCount="indefinite" values="1;0"/></rect><rect width="6" height="8" x="47" y="27" fill="#00a8a9" rx="3" ry="4" transform="rotate(345.6 50 50)"><animate attributeName="opacity" begin="-0.03614457831325301s" dur="1.2048192771084336s" keyTimes="0;1" repeatCount="indefinite" values="1;0"/></rect><rect width="6" height="8" x="47" y="27" fill="#00a8a9" rx="3" ry="4" transform="rotate(349.2 50 50)"><animate attributeName="opacity" begin="-0.024096385542168676s" dur="1.2048192771084336s" keyTimes="0;1" repeatCount="indefinite" values="1;0"/></rect><rect width="6" height="8" x="47" y="27" fill="#00a8a9" rx="3" ry="4" transform="rotate(352.8 50 50)"><animate attributeName="opacity" begin="-0.012048192771084338s" dur="1.2048192771084336s" keyTimes="0;1" repeatCount="indefinite" values="1;0"/></rect><rect width="6" height="8" x="47" y="27" fill="#00a8a9" rx="3" ry="4" transform="rotate(356.4 50 50)"><animate attributeName="opacity" begin="0s" dur="1.2048192771084336s" keyTimes="0;1" repeatCount="indefinite" values="1;0"/></rect></svg>